<svg viewBox="0 0 122 122" fill="none" xmlns="http://www.w3.org/2000/svg">
<path d="M29.2833 44.6818L48.9423 40.5938C54.1395 31.3959 65.2797 13 68.2624 13C71.9909 13 74.0246 20.1539 68.2624 31.3959C66.5096 34.8157 65.0356 38.0397 64.5785 38.9601C72.1813 35.0935 88.2944 28.4854 93.6836 26.6266C95.5002 26 101.818 23.9012 100.124 31.3959C98.7678 37.3915 81.9334 50.9273 73.6856 56.9457C85.5488 56.1508 110.834 55.6511 117.071 60.0116C123.308 64.3721 96.6212 75.9093 82.4983 81.1328C88.1474 83.0632 100.327 87.9461 103.852 92.0341C108.258 97.144 106.564 99.188 100.124 100.891C93.6836 102.595 25.9569 90.4506 18.5 85C11.0431 79.5494 19.4538 46.7257 29.2833 44.6818Z" fill="#49B075" stroke="#286F4D" stroke-width="3"/>
<path d="M47.0024 49.2833L50 41C43.8382 42.2993 31.2978 44.3306 28.5 45.5C23.715 47.5 18.9757 60.048 18.5 61.5C18.1524 62.5611 37.3433 53.831 47.0024 49.2833Z" fill="#247B45"/>
<path d="M91.0533 99.3614C97.0178 100.518 99.503 99.8433 100 99.3614C98.5089 98.8795 94.7314 97.8194 91.5503 97.4339C87.574 96.952 39.3609 86.8322 34.3905 85.8684C30.4142 85.0974 21.642 80.4276 17.5 78.5C17.1686 78.3394 17 78.729 17 79.5C17 80.4638 17.8663 83.7212 18.5 84C31 89.5 44.3314 91.6511 48.3077 92.6149C52.284 93.5787 83.5976 97.9157 91.0533 99.3614Z" fill="#C3D7AC"/>
</svg>
