<svg viewBox="0 0 244 133" fill="none" xmlns="http://www.w3.org/2000/svg">
<rect width="244" height="133" rx="15" fill="white"/>
<rect x="5" y="5" width="233" height="122" rx="61" fill="white" stroke="#247B45" stroke-width="4"/>
<mask id="mask0_21_390" style="mask-type:alpha" maskUnits="userSpaceOnUse" x="16" y="13" width="106" height="106">
<rect x="16" y="13" width="106" height="106" rx="53" fill="#EDB56C"/>
</mask>
<g class="circle-btn" mask="url(#mask0_21_390)">
<path d="M17.5 66C17.5 37.5573 40.5573 14.5 69 14.5C97.4427 14.5 120.5 37.5573 120.5 66C120.5 94.4427 97.4427 117.5 69 117.5C40.5573 117.5 17.5 94.4427 17.5 66Z" fill="#49B075" stroke="#286F4D" stroke-width="3"/>
<path d="M33.6061 102C33.4342 101.952 33.377 101.819 33.4424 101.627C31.8212 98.0277 27.0245 89.6032 30.3255 89.797C34.6016 90.0482 84.1352 80.7565 98.033 78.2453C111.931 75.734 108.367 80.7565 112.287 85.5279C116.207 90.2993 107.691 97.6095 85.7424 95.824C61.0467 93.815 61.8767 97.303 49.1061 97.303C38.5008 97.303 33.829 100.494 33.4424 101.627C33.5013 101.758 33.5561 101.883 33.6061 102Z" fill="#C3D7AC"/>
<path d="M24.2062 85.595C-0.578447 87.6156 4.55169 88.2873 5.71763 91.234C5.71763 102.6 17.7102 99.8217 17.7102 99.8217C17.7102 99.8217 27.2044 95.2752 57.6855 91.234C88.1665 87.1928 114.65 96.5381 134.138 79.1103C153.626 61.6825 138.635 78.3526 126.143 74.564C111.152 70.0176 105.656 70.5227 80.6712 79.1103C55.6867 87.6979 55.1869 83.0692 24.2062 85.595Z" fill="#247B45"/>
<path d="M53.3596 41.6202C47.4969 41.5985 41.8458 41.3865 39.7531 41.2832C37.6527 41.8487 35.3619 43.7987 34.981 46.5679C34.6763 48.7832 34.4721 52.576 34.7433 54.2807C32.1178 54.9875 28.3509 61.6858 29.6896 66.6587C32.1223 75.6952 54.6638 79.935 74.2831 73.32C93.9023 66.705 100.175 52.35 98.3108 47.5185C96.8198 43.6533 90.0803 39.9566 86.897 38.5914C84.8889 31.1322 80.1861 30.3983 76.5103 31.3878C72.8346 32.3774 69.6609 35.2317 66.4872 38.0861C63.3135 40.9404 60.688 41.6472 53.3596 41.6202Z" fill="#68CF94"/>
<path d="M85.5593 42.1515C85.907 46.9415 83.509 50.8516 80.2032 50.8849C76.8974 50.9183 73.9357 47.0623 73.588 42.2724C73.2403 37.4824 75.6383 33.5723 78.9441 33.5389C82.2498 33.5056 85.2116 37.3615 85.5593 42.1515Z" fill="#49B075"/>
<path d="M48.5092 49.5726C50.3202 54.039 49.3592 58.7623 46.3628 60.1225C43.3665 61.4827 39.4693 58.9646 37.6583 54.4982C35.8474 50.0318 36.8083 45.3084 39.8047 43.9482C42.8011 42.5881 46.6982 45.1062 48.5092 49.5726Z" fill="#49B075"/>
<path d="M71.7904 60.8907C62.0315 62.8221 50.963 66.248 46.6487 67.7195L45.3692 69.7979L55.7453 66.3893C58.0694 68.1509 63.9582 71.2405 68.9214 69.506C73.8846 67.7715 74.5462 64.0602 74.2566 62.4214L87.3083 58.6215C86.2019 58.5731 81.5493 58.9593 71.7904 60.8907Z" fill="#49B075"/>
</g>
</svg>
