<svg class="frontHand" viewBox="0 0 433 393" fill="none" xmlns="http://www.w3.org/2000/svg">
<path d="M223.784 179.947C279.182 189.385 329.719 187.741 383.807 172.625L388.353 171.138C397.727 184.066 417.727 210.815 422.728 214.396C420.828 216.019 419.239 217.003 418.681 217.293C404.699 225.171 388.342 230.303 372.878 234.767C369.324 235.801 365.758 236.797 362.18 237.75C358.604 238.705 355.015 239.618 351.414 240.492C347.814 241.366 344.204 242.199 340.584 242.991C336.963 243.783 333.333 244.534 329.694 245.245C326.056 245.954 322.409 246.624 318.754 247.252C315.099 247.88 311.437 248.466 307.768 249.012C304.098 249.557 300.422 250.062 296.741 250.523C293.059 250.986 289.372 251.406 285.681 251.786C281.989 252.166 278.292 252.504 274.592 252.799C270.893 253.096 267.189 253.351 263.484 253.563C259.778 253.776 256.069 253.946 252.36 254.075C248.65 254.204 244.939 254.291 241.227 254.337C237.515 254.381 233.804 254.385 230.092 254.345C226.38 254.307 222.67 254.227 218.961 254.104C215.251 253.982 211.543 253.818 207.839 253.612C204.133 253.406 200.432 253.159 196.733 252.869C173.528 250.435 151.961 246.025 129.712 239.198C120.588 236.398 111.926 231.829 102.499 230.023C86.012 226.864 57.5581 229.203 43.2761 220.799C40.8347 219.362 38.3191 217.298 37.7821 214.46C37.2998 211.914 38.4998 209.491 39.9842 207.44C47.2944 197.348 61.5041 194.406 73.2763 192.278C60.2088 187.647 41.9949 181.444 34.1403 169.802C32.5404 167.432 31.5045 164.595 32.2852 161.772C32.9916 159.217 35.039 157.252 37.4029 155.987C50.0542 149.217 73.0328 155.045 86.1533 158.571L83.5932 155.463C74.4291 147.066 62.1926 127.78 62.1436 115.23C62.1356 113.009 62.5858 110.663 64.2749 109.013C65.9158 107.41 68.3337 106.977 70.5922 107.072C82.9187 107.595 99.3471 120.736 108.678 128.124C113.655 132.678 118.556 137.305 123.381 142.004C122.021 133.663 121.163 122.827 126.108 115.291C126.534 113.912 128.694 111.465 129.999 110.729C131.11 110.104 132.622 110.136 133.825 110.459C146.239 113.793 159.964 139.954 166.444 150.713C169.699 156.117 173.225 161.375 176.535 166.752C190.622 173.961 208.116 177.277 223.784 179.947Z" fill="#095A33"/>
<path d="M72.7441 112.247L73.4672 112.759C77.5401 115.591 82.1107 118.026 86.3204 120.709C94.3029 125.798 101.89 131.134 109.361 136.883C112.826 139.549 120.722 148.411 124.228 149.242C111.735 135.027 91.742 116.9 72.7441 112.247Z" fill="white"/>
<path d="M72.0568 129.34C70.9498 138.14 82.689 147.421 83.42 153.368C83.5482 154.409 83.3746 153.945 84.0206 154.828L83.5946 155.465L86.1548 158.573C90.1491 158.912 93.594 161.238 97.6872 161.505C88.167 151.377 79.5766 140.906 72.0568 129.34Z" fill="#247B45"/>
<path d="M100.153 199.271C99.6366 198.963 99.3601 198.77 98.8274 198.541C96.7886 197.67 94.1783 197.426 91.9852 197.032C80.2959 194.93 68.6448 195.657 57.5731 200.03C52.6934 201.957 47.0763 204.696 44.9767 209.57C61.2744 198.442 81.1723 200.141 100.153 199.271Z" fill="#247B45"/>
<path d="M102.767 169.725C98.5793 165.005 79.7761 160.579 73.0593 159.114C64.9738 157.352 46.3584 154.765 39.0804 159.439C37.7416 160.298 37.1135 161.202 36.751 162.717C37.997 161.99 39.3506 161.152 40.7488 160.73C50.2961 157.84 71.0961 161.899 81.3325 164.236C88.4823 165.869 95.5945 168.386 102.767 169.725Z" fill="#247B45"/>
<path d="M170.088 166.044C162.472 153.392 155.08 140.396 146.299 128.441C144.118 125.471 137.228 115.87 133.135 115.558C132.361 115.498 131.808 116.416 131.306 116.906C143.756 126.936 152.683 142.612 161.663 155.525C164.189 159.156 166.593 163.09 169.561 166.404C180.714 181.312 207.474 186.87 225.603 189.725C266.795 196.213 309.856 197.893 351.058 190.237C358.877 188.785 366.521 186.665 374.11 184.369C378.89 182.924 383.997 180.81 388.963 180.204C388.471 179.504 387.965 178.814 387.464 178.121C384.005 176.966 380.019 179.258 376.623 180.09C359.136 184.223 341.451 187.304 323.568 189.332C296.346 192.326 260.884 190.702 233.75 186.789C219.137 184.681 178.68 177.195 170.088 166.044Z" fill="#CDE1B5"/>
<path d="M117.305 229.7C125.69 234.863 137.913 237.064 147.478 239.56C159.599 242.723 171.948 245.665 184.401 247.366C202.291 249.81 220.923 250.126 238.969 249.759C274.302 249.041 308.379 244.93 342.98 237.788C362.914 233.673 399.611 224.814 416.525 214.562C411.949 210.808 407.9 205.483 404.029 201.043C382.045 207.678 361.317 215.055 338.839 220.537C328.288 223.109 317.606 224.869 306.894 226.697C294.119 228.878 281.347 231.097 268.45 232.516C253.149 234.199 237.643 234.919 222.268 235.607C207.842 236.251 193.474 236.915 179.038 236.28C158.16 235.359 137.927 232.588 117.305 229.7Z" fill="#247B45"/>
<path d="M72.7442 112.246C70.9335 111.578 69.4785 111.036 67.6159 111.707C66.4967 113.351 66.7767 115.348 67.1522 117.185C68.0484 121.558 70.0733 125.358 72.0578 129.341C79.5776 140.907 88.168 151.378 97.6882 161.506C109.503 167.57 121.929 173.484 133.051 180.615C127.096 178.662 106.992 172.212 102.768 169.727C95.5956 168.389 88.4834 165.871 81.3336 164.239C71.0972 161.901 50.2972 157.842 40.7499 160.732C39.3517 161.154 37.998 161.992 36.7521 162.719C37.2524 166.881 39.6807 169.365 43.0496 171.909C64.6003 188.171 102.146 193.969 127.755 204.325C118.628 202.165 109.332 201.124 100.153 199.272C81.1731 200.142 61.2752 198.442 44.9774 209.57C43.9072 211.193 42.5602 212.911 43.0709 214.927C43.4272 216.335 45.2909 217.298 46.5615 217.868C51.3366 220.008 57.3721 220.67 62.5543 221.318C79.7869 223.474 101.776 222.85 117.305 229.7C137.927 232.589 158.16 235.359 179.038 236.28C193.474 236.915 207.842 236.251 222.268 235.607C237.643 234.919 253.15 234.199 268.45 232.516C281.347 231.097 294.119 228.878 306.894 226.697C317.606 224.869 328.288 223.109 338.839 220.537C361.317 215.055 382.045 207.678 404.029 201.044C399.455 193.913 393.629 187.39 388.963 180.205C383.996 180.81 378.89 182.924 374.11 184.369C366.521 186.665 358.876 188.785 351.057 190.237C309.855 197.894 266.794 196.214 225.603 189.726C207.473 186.87 180.713 181.313 169.561 166.405C166.592 163.09 164.188 159.157 161.662 155.526C152.682 142.613 143.755 126.936 131.305 116.906C130.332 120.32 130.02 124.29 128.738 127.528C128.767 127.745 128.8 127.963 128.826 128.181C129.278 131.884 128.284 135.714 128.765 139.493C130.438 152.634 141.534 165.071 151.846 173.094C154.307 175.009 156.92 176.673 159.573 178.33C148.234 175.048 138.204 165.867 130.874 157.32C128.608 154.675 126.995 151.432 124.228 149.241C120.722 148.41 112.826 139.548 109.362 136.883C101.89 131.133 94.303 125.796 86.3206 120.708C82.1109 118.025 77.5403 115.59 73.4674 112.758L72.7442 112.246Z" fill="#49B075"/>
</svg>
