<svg width="477" height="422" viewBox="0 0 477 422" fill="none" xmlns="http://www.w3.org/2000/svg">
<path d="M92.9141 263.715C69.1887 255.71 47.0318 246.15 25.5237 233.304L18.9892 228.315C35.5 181 36.5 171.5 96.5 143.088C101.857 137.569 102.974 139.058 112.927 143.088C125.079 154.56 194.706 159.946 228 161.205C234.904 160.726 241.96 161.035 248.887 160.959C264.248 160.791 280.066 160.449 295.286 158.361C303.132 145.719 309.158 132.06 322.965 124.761C330.657 120.695 339.366 119.342 347.747 122.13C355.799 124.809 363.493 130.995 367.303 138.579C368.386 140.733 372.068 139.675 374.198 139.555C385.169 138.934 397.39 142.463 406.892 147.937C420.381 155.708 430.211 167.997 434.141 183.127C438.559 200.143 435.837 217.597 426.944 232.671C413.466 255.518 391.204 267.108 366.128 273.428C346.506 278.373 326.241 280.461 306.17 282.678C234.145 290.638 161.962 287.011 92.9141 263.715Z" fill="#661A23"/>
<path d="M359.113 140.865C356.933 137.158 354.183 134.06 350.678 131.542C350.34 131.294 349.995 131.056 349.644 130.827C349.293 130.598 348.936 130.377 348.574 130.167C348.211 129.956 347.843 129.755 347.47 129.564C347.097 129.373 346.719 129.192 346.337 129.02C345.955 128.849 345.568 128.688 345.176 128.538C344.785 128.387 344.39 128.246 343.992 128.116C343.593 127.986 343.192 127.867 342.788 127.758C342.382 127.649 341.975 127.55 341.565 127.463C341.155 127.376 340.743 127.299 340.329 127.233C339.915 127.167 339.499 127.113 339.083 127.069C338.666 127.025 338.248 126.992 337.829 126.97C337.411 126.948 336.992 126.938 336.573 126.938C336.153 126.939 335.734 126.95 335.316 126.972C334.897 126.995 334.479 127.028 334.064 127.072C333.647 127.116 333.231 127.172 332.817 127.239C332.403 127.304 331.991 127.381 331.581 127.469C319.712 129.923 313.143 138.781 306.83 148.206L301.501 156.543C321.429 154.041 339.487 144.871 359.113 140.865Z" fill="white"/>
<path d="M299.643 277.197C294.478 272.029 289.39 266.887 285.05 260.984C237.94 266.377 193.006 265.062 146.652 254.602C129.846 250.81 112.241 245.772 96.8005 238.001C88.2198 233.682 79.0622 228.992 71.2231 223.443C64.6706 218.807 50.071 200.223 43 196.5C35.7312 203.204 32.5 218.5 28.7943 228.225C45.2966 239.22 64.5259 247.14 83.1248 253.89C155.058 279.993 224.017 283.847 299.643 277.197Z" fill="#C77D43"/>
<path d="M299.643 277.201C306.661 277.482 315.606 274.876 322.697 273.82C352.217 269.423 384.229 266.389 407.138 245.037C407.909 244.316 408.662 243.576 409.397 242.819C410.131 242.06 410.847 241.284 411.543 240.489C412.239 239.696 412.915 238.886 413.572 238.058C414.227 237.231 414.862 236.388 415.476 235.529C416.091 234.67 416.684 233.796 417.255 232.908C417.825 232.02 418.374 231.119 418.9 230.203C419.427 229.288 419.93 228.36 420.409 227.42C420.89 226.479 421.347 225.528 421.78 224.565C422.213 223.601 422.622 222.628 423.007 221.645C423.391 220.662 423.751 219.67 424.087 218.669C424.422 217.668 424.733 216.659 425.019 215.642C425.304 214.626 425.565 213.603 425.8 212.573C426.034 211.544 426.244 210.51 426.427 209.47C426.611 208.43 426.769 207.386 426.901 206.339C427.033 205.291 427.139 204.241 427.218 203.188C427.298 202.135 427.352 201.081 427.38 200.026C427.729 186.32 422.75 172.509 413.249 162.558C412.622 161.913 411.979 161.282 411.321 160.668C410.663 160.054 409.99 159.456 409.303 158.875C408.615 158.293 407.914 157.729 407.199 157.182C406.485 156.635 405.757 156.105 405.015 155.593C404.275 155.082 403.523 154.588 402.758 154.113C401.993 153.638 401.217 153.182 400.43 152.745C399.643 152.308 398.846 151.89 398.039 151.492C397.231 151.093 396.414 150.715 395.589 150.357C394.763 149.998 393.929 149.66 393.086 149.342C392.244 149.024 391.394 148.727 390.538 148.451C389.681 148.175 388.817 147.92 387.948 147.686C387.079 147.452 386.205 147.239 385.325 147.047C384.445 146.855 383.561 146.685 382.673 146.537C381.785 146.389 380.895 146.262 380 146.157C379.106 146.053 378.21 145.969 377.312 145.908C376.414 145.847 375.514 145.807 374.614 145.79C357.156 145.617 340.904 153.075 324.561 158.139C315.356 160.905 306.011 163.063 296.526 164.611C275.173 167.94 251.514 167.701 229.912 167.882C224.071 167.93 217.786 166.407 212.054 167.029C203.895 167.915 155.974 164.611 105.108 147.861L148.608 166.387L188.985 175.832C194.331 177.027 200.541 174.27 206.136 174.141C218.298 173.861 230.537 174.032 242.68 173.362C254.187 172.726 265.626 171.193 277.142 170.653C274.607 176.177 272.591 181.884 271.096 187.775C265.06 212.353 272.121 239.819 285.051 260.988C289.391 266.891 294.479 272.033 299.643 277.201Z" fill="white"/>
<path d="M409.168 200.823C404.772 238.931 319.396 257.008 277.258 261.282L291.913 277.77C319.394 275.938 319.394 275.938 367.03 266.777C408.055 258.888 425.474 227.558 426.474 210.057C426.578 208.228 422.358 203.755 409.168 200.823Z" fill="#C77D43"/>
<path d="M279.09 169.678C255.974 171.038 253.974 171.558 242.68 173.359C230.537 174.03 218.298 173.859 206.136 174.139C200.541 174.267 201.474 174.139 189.51 173.62L186.992 173.01C178.474 172.058 177.266 171.141 166.846 168.134C138.191 159.865 127.467 156.616 105.109 147.859C63 161 44 189.5 35.5 208.5C44.6604 215.828 53.7422 222.809 70.231 226.473C83.0556 230.137 88.2201 233.684 96.8008 238.002C112.241 245.774 129.846 250.811 146.653 254.604C193.006 265.063 237.94 266.379 285.05 260.986C478.788 250.29 414.664 153.19 368.862 153.19C370.358 147.298 310.235 167.846 279.09 169.678Z" fill="#EDB56C"/>
</svg>
