<svg class="niwi-cb-dog-svg" xmlns="http://www.w3.org/2000/svg" viewBox="0 0 423 614" fill="none">
    <g class="niwi-cb-dog-body">
        <path d="M372.731 406.264C388.082 403.102 402.678 392.061 411.441 378.792C414.26 374.525 415.834 371.779 415.544 366.889C425.528 397.049 425.947 434.211 411.586 462.899C401.265 483.521 382.48 500.585 360.421 507.786C358.292 508.473 356.139 509.077 353.964 509.598C351.789 510.119 349.597 510.556 347.388 510.909C345.179 511.261 342.96 511.529 340.73 511.71C338.5 511.892 336.267 511.988 334.03 511.998C331.203 520.906 324.192 538.173 324.954 547.198C325.118 549.152 325.914 551.034 326.709 552.808C329.458 560.168 331.796 567.742 333.066 575.508C334.38 583.545 334.389 591.315 329.364 598.164C322.606 607.373 310.938 611.055 300.101 612.584C283.549 614.921 265.018 612.235 251.477 601.907C233.204 587.969 228.959 563.407 226.124 541.923C201.718 549.638 176.204 548.385 151.417 543.328C151.06 546.576 150.635 549.815 150.141 553.045C147.508 570.055 140.437 591.82 125.908 602.289C111.904 612.38 93.9713 614.543 77.2587 611.749C66.9492 610.027 53.9044 606.359 47.65 597.225C38.3785 583.684 48.8504 565.685 51.3713 551.492C52.8835 538.579 45.7268 523.518 42.0307 510.907C39.2055 501.443 36.893 491.856 35.0933 482.145C27.3226 440.273 28.9859 397.449 35.3491 355.533C37.3981 341.642 43.2768 309.113 50.3993 290.133C93.2469 321.9 215.392 362.559 325.28 292.63C331.939 310.945 346.008 362.059 349.005 410.01C356.363 410.01 369.728 406.951 372.585 406.297L372.731 406.264Z" fill="#661A23"/>
        <path d="M348.922 413.814C357.942 413.23 366.941 412.376 375.635 409.744C392.852 404.531 406.892 394.932 415.484 378.931C416.276 385.35 416.958 391.69 417.026 398.165C419.562 428.556 413.545 456.617 393.426 480.223C379.291 496.811 359.787 506.573 338.084 508.263C336.895 508.355 335.712 508.426 334.519 508.434C337.759 497.868 340.472 487.168 342.658 476.335C343.715 470.919 344.197 465.017 345.595 459.726C347.727 444.483 348.481 429.183 348.922 413.814Z" fill="white"/>
        <path d="M123.691 532.002C130.84 535.745 138.454 538.454 145.61 542.121C145.032 548.938 143.738 555.602 142.745 562.359C136.39 557.803 128.393 555.12 121.157 552.292C122.451 545.492 123.347 538.921 123.691 532.002Z" fill="#C77D43"/>
        <path d="M298.06 312.106C307.19 307.488 316.197 302.41 324.467 296.365L329.736 315.377C328.078 316.475 326.324 317.52 324.749 318.733C319.491 322.764 309.145 329.343 302.932 331.4C301.133 325.036 299.801 318.501 298.06 312.106Z" fill="#C77D43"/>
        <path d="M329.736 315.376C332.391 327.817 334.96 340.275 337.442 352.751C339.278 361.771 341.315 370.724 342.539 379.857C346.41 408.724 345.335 439.599 339.64 468.161L339.143 467.934C338.396 464.768 340.584 450.742 340.758 446.201C341.022 439.299 340.769 432.27 340.485 425.371C339 389.237 333.32 353.844 324.749 318.732C326.324 317.519 328.077 316.474 329.736 315.376Z" fill="white"/>
        <path d="M321.689 535.224C320.824 539.012 319.401 543.457 319.814 547.337C320.3 551.9 322.617 556.479 324.201 560.772C327.548 569.842 331.768 583.926 327.076 593.205C326.665 593.94 326.236 594.657 325.761 595.354C320.326 603.338 311.131 606.527 302.042 608.248C286.618 611.169 268.896 609.766 255.664 600.67C242.663 591.733 236.727 577.837 233.855 562.785C240.324 557.832 249.057 554.543 256.892 552.577L256.929 552.387C262.023 551.56 267.064 549.904 272.183 548.995C285.235 546.674 298.529 546.027 311.76 546.23C314.774 542.294 318.083 538.625 321.689 535.224Z" fill="white"/>
        <path d="M230.545 541.108C239.479 537.527 247.295 533.332 255.385 528.175C255.261 536.17 254.574 545.055 256.994 552.81L256.957 553C249.122 554.966 240.389 558.255 233.92 563.208C232.489 555.888 231.364 548.522 230.545 541.108Z" fill="#C77D43"/>
        <path d="M52.3794 293.879C54.3886 295.394 56.4464 296.841 58.5526 298.217C56.0869 302.63 55.1496 308.708 53.998 313.636C42.7545 368.078 36.1793 419.276 42.9665 474.968C44.391 486.65 46.0031 498.375 48.8108 509.815C51.2757 519.862 53.8892 532.099 59.6368 540.789C60.2215 541.673 60.9151 542.479 61.6209 543.267C80.6058 544.287 103.141 545.285 120.977 552.318L121.158 552.292C128.394 555.12 136.391 557.803 142.745 562.359C138.495 578.253 132.583 593.943 117.556 602.629C103.707 610.635 84.2849 610.536 69.2511 606.397C61.975 604.393 53.6228 600.842 49.7407 593.946C49.1202 592.843 48.6727 591.637 48.2293 590.456C48.2008 590.352 48.1708 590.249 48.144 590.145C48.0993 589.971 48.0587 589.796 48.0132 589.623C43.9947 574.335 56.4767 555.628 55.0709 538.392C54.4585 530.883 50.5155 523.245 48.2422 516.075C44.8924 505.646 42.1649 495.056 40.0598 484.306C30.625 434.756 33.7485 386.527 42.8235 337.241C45.4882 322.768 48.3657 308.04 52.3794 293.879Z" fill="white"/>
        <path d="M58.5521 298.218C65.4706 303.255 72.6641 307.863 80.1327 312.042C79.2442 318.609 77.5801 325.392 75.9241 331.814L75.929 332.21C70.693 358.624 69.4748 386.671 74.8464 413.148C81.77 447.279 99.7982 480.997 129.464 500.451C153.625 516.294 180.972 521.309 209.283 515.263C240.139 508.675 266.403 488.697 283.371 462.386C308.645 423.199 312.676 376.728 303.011 331.86L302.931 331.4C309.144 329.343 319.49 322.764 324.749 318.733C333.32 353.845 339 389.238 340.485 425.372C340.769 432.271 341.022 439.3 340.758 446.202C340.584 450.743 338.396 464.769 339.143 467.935L339.64 468.162C337.321 486.097 331.647 504.058 326.094 521.201C324.594 525.83 323.345 530.663 321.689 535.224C318.083 538.626 314.774 542.295 311.76 546.23C298.529 546.027 285.235 546.675 272.183 548.995C267.064 549.905 262.023 551.561 256.929 552.387C254.509 544.632 255.196 535.748 255.32 527.752C259.747 524.766 263.927 521.747 267.835 518.083C242.432 534.416 214.521 541.253 184.533 541.028C174.535 540.952 164.73 540.344 154.928 538.245C137.497 534.514 118.957 527.306 104.06 517.448C110.155 522.93 116.764 527.638 123.692 532.002C123.347 538.921 122.452 545.492 121.157 552.292L120.977 552.318C103.14 545.285 80.6054 544.288 61.6204 543.268C60.9147 542.479 60.2211 541.673 59.6364 540.79C53.8887 532.1 51.2752 519.862 48.8103 509.816C46.0027 498.375 44.3906 486.65 42.9661 474.968C36.1789 419.277 42.7541 368.079 53.9976 313.637C55.1492 308.708 56.0864 302.63 58.5521 298.218Z" fill="#EDB56C"/>
        <path d="M80.1332 312.042C81.986 312.931 83.8491 313.797 85.7225 314.641C87.5964 315.484 89.4801 316.305 91.3735 317.103C93.2674 317.9 95.1706 318.674 97.0829 319.425C98.9958 320.176 100.917 320.904 102.848 321.608C104.778 322.312 106.717 322.993 108.664 323.649C110.611 324.306 112.566 324.939 114.529 325.548C116.491 326.157 118.46 326.742 120.437 327.303C122.414 327.864 124.397 328.401 126.387 328.913C128.377 329.426 130.373 329.914 132.375 330.377C134.377 330.841 136.384 331.281 138.396 331.695C140.409 332.11 142.426 332.499 144.449 332.865C146.471 333.23 148.497 333.571 150.528 333.887C152.558 334.203 154.592 334.494 156.629 334.76C158.667 335.027 160.707 335.268 162.751 335.484C164.794 335.701 166.84 335.892 168.888 336.058C170.936 336.225 172.985 336.367 175.037 336.483C177.088 336.599 179.141 336.69 181.195 336.757C183.249 336.823 185.303 336.864 187.358 336.88C189.413 336.896 191.467 336.887 193.521 336.853C195.576 336.818 197.63 336.759 199.683 336.675C201.736 336.591 203.788 336.481 205.839 336.347C207.889 336.212 209.938 336.053 211.984 335.868C214.031 335.684 216.075 335.475 218.116 335.24C220.157 335.006 222.195 334.747 224.231 334.462C226.266 334.178 228.297 333.869 230.324 333.535C232.352 333.201 234.375 332.843 236.394 332.46C238.413 332.076 240.426 331.669 242.435 331.236C244.444 330.804 246.448 330.347 248.445 329.866C250.443 329.384 252.434 328.879 254.419 328.348C256.405 327.818 258.383 327.264 260.355 326.686C262.327 326.108 264.292 325.505 266.248 324.879C268.206 324.253 270.155 323.603 272.096 322.929C280.981 319.816 289.55 316.117 298.06 312.105C299.801 318.501 301.134 325.036 302.932 331.4L303.011 331.86C312.677 376.728 308.645 423.198 283.372 462.386C266.403 488.696 240.14 508.674 209.284 515.263C180.973 521.308 153.625 516.294 129.464 500.451C99.7988 480.997 81.7705 447.279 74.8469 413.148C69.4753 386.671 70.6936 358.624 75.9295 332.209L75.9247 331.814C77.5806 325.391 79.2447 318.609 80.1332 312.042Z" fill="white"/>
        <path d="M158.669 322.007C162.531 318.789 169.397 316.947 174.231 315.741C187.598 312.405 203.86 313.393 215.87 320.631C212.187 332.362 208.028 346.03 196.2 352.086C191.317 354.585 185.315 354.846 180.175 352.993C171.737 349.95 166.606 341.87 163.125 334.055C161.368 330.11 160.083 326.074 158.669 322.007Z" fill="#D8949F"/>
    </g>
    <g class="niwi-cb-dog-head">
        <path d="M337.582 1.15184C299.624 11.3622 256.524 50.2563 237.162 83.5563C210.29 77.0396 164.78 76.5255 138.157 83.5474C137.08 81.765 135.983 79.995 134.866 78.2375C116.059 48.8619 73.4903 8.64153 38.4986 1.19358C33.0458 0.0329317 27.6011 0.0260274 22.811 3.29982C12.6437 10.2488 9.25291 26.2222 6.9667 37.5616C-1.37576 78.9254 -0.0300154 123.256 12.949 163.49C16.1384 173.378 19.6566 183.306 25.4367 192.015C21.164 201.105 17.3777 210.551 13.7263 219.905C4.63581 243.194 -1.673 262.289 1.97438 287.875C6.9667 383.619 186.983 469.78 326.721 368.407C343.403 351.996 353.923 343.851 364.875 321.627C375.548 299.974 380.079 274.636 373.107 251.083C371.032 244.072 367.592 237.755 365.034 230.951C360.672 219.349 356.594 207.467 352.617 195.728C354.573 191.484 356.408 187.189 358.125 182.844C359.842 178.498 361.436 174.108 362.909 169.674C364.382 165.24 365.731 160.768 366.956 156.259C368.18 151.75 369.279 147.21 370.252 142.64C376.751 111.073 377.717 66.1673 369.933 34.7897C367.391 24.5476 363.539 7.65314 353.915 2.14291C348.829 -0.769559 343.025 -0.312234 337.582 1.15184Z" fill="#661A23" style="&#10;    transform: rotate;&#10;"/>
        <path d="M246.779 88.3255C245.383 87.96 244.233 87.5474 242.953 86.875C243.057 86.317 243.213 85.8484 243.468 85.3392C246.376 79.5177 251.193 73.8098 255.343 68.7923C275.289 44.6746 306.564 18.1098 336.805 8.71276C341.738 7.17974 347.507 5.94518 352.282 8.65104C358.899 12.4012 361.674 23.4855 363.425 30.3011C363.261 30.1411 363.092 29.9868 362.935 29.8219C358.149 24.828 359.706 12.5677 347.066 11.9512C328.012 11.0221 286.076 44.9483 272.589 57.8518C265.977 64.1769 259.707 71.8972 254.006 79.0539C252.027 81.5383 249.062 86.4518 246.779 88.3255Z" fill="white"/>
        <path d="M8.43326 80.1289L8.9701 79.873C10.8397 106.376 17.0445 134.535 29.451 158.185C31.6609 162.397 34.2143 167.271 37.5986 170.663C34.1843 176.836 31.1898 183.122 28.3294 189.567C15.8304 160.678 9.26653 136.721 7.78191 105.141C7.51958 99.5572 6.81138 93.6196 7.19309 88.0628L7.70639 88.1668C8.21805 85.5346 8.27002 82.8017 8.43326 80.1289Z" fill="#C77D43"/>
        <path d="M7.1923 88.0623C7.07698 70.2031 11.1703 24.1652 23.5426 11.2097C26.0855 8.54718 29.0774 7.25804 32.7663 7.29572C37.0829 7.33991 41.3978 8.86099 45.4407 10.2368C69.7558 18.5094 92.9518 38.0393 110.351 56.5946C119.107 65.9327 128.108 76.1464 134.478 87.3054C133.088 87.6766 131.593 87.9665 130.245 88.4506C122.613 72.2968 96.6276 48.9555 82.2874 37.2523C70.8108 27.8865 51.5733 15.7708 36.9968 13.3741C34.4425 12.9543 32.1149 13.0907 29.5615 13.3506C28.8931 13.7534 28.2206 14.1668 27.6066 14.6517C16.8561 23.1403 9.57761 65.7573 8.43247 80.1284C8.26923 82.8012 8.21726 85.5341 7.7056 88.1663L7.1923 88.0623Z" fill="white"/>
        <path d="M369.399 63.1514C370.117 67.8432 370.247 72.7064 370.535 77.4494C370.772 81.1495 370.925 84.853 370.995 88.5596C371.066 92.2663 371.053 95.9727 370.958 99.6788C370.862 103.386 370.684 107.088 370.422 110.786C370.161 114.484 369.816 118.175 369.39 121.858C368.963 125.541 368.453 129.212 367.862 132.872C367.27 136.532 366.597 140.177 365.842 143.807C365.088 147.437 364.252 151.048 363.335 154.641C362.419 158.233 361.422 161.803 360.345 165.351C357.708 174.254 354.696 183.31 350.68 191.698C347.059 184.841 343.814 177.461 340.825 170.303C343.403 166.625 345.448 162.473 347.535 158.501C359.528 135.677 364.592 111.514 367.576 86.0874C368.469 78.4832 369.562 70.8197 369.399 63.1514Z" fill="#C77D43"/>
        <path d="M29.5616 13.3503C32.115 13.0904 34.4427 12.954 36.9969 13.3739C51.5735 15.7706 70.811 27.8863 82.2875 37.2521C96.6278 48.9552 122.613 72.2965 130.245 88.4503C125.567 89.9409 120.988 91.6938 116.51 93.709C112.032 95.7242 107.684 97.9885 103.466 100.502C95.9253 84.5325 65.0495 45.7066 48.4783 39.9216C45.4165 38.8528 41.8089 38.5905 38.8316 40.0719C34.208 42.3735 31.7431 48.1309 30.3527 52.8454C22.6136 79.0959 27.93 125.236 35.7129 151.423C36.9498 155.585 38.0901 160.254 40.1927 164.06C40.4161 164.464 40.6492 164.807 40.9245 165.177C40.0433 167.171 38.8316 168.88 37.5979 170.662C34.2137 167.271 31.6602 162.396 29.4504 158.184C17.0439 134.534 10.839 106.375 8.96946 79.8723L8.43262 80.1282C9.57776 65.7571 16.8563 23.1401 27.6068 14.6514C28.2208 14.1666 28.8932 13.7532 29.5616 13.3503Z" fill="#EDB56C"/>
        <path d="M246.779 88.3256C249.061 86.4519 252.027 81.5384 254.006 79.054C259.706 71.8973 265.977 64.177 272.589 57.8519C286.075 44.9484 328.012 11.0222 347.066 11.9513C359.706 12.5678 358.149 24.828 362.935 29.822C363.092 29.9869 363.261 30.1412 363.425 30.3012C367.007 38.2976 369.227 54.3726 369.398 63.1512C369.562 70.8196 368.469 78.4831 367.576 86.0873C364.592 111.514 359.528 135.677 347.534 158.501C345.447 162.473 343.403 166.625 340.824 170.303C338.512 165.984 335.917 161.783 333.496 157.52C337.863 151.757 347.059 125.367 349.032 117.561C350.894 110.195 352.366 102.606 353.119 95.0429C354.529 80.8667 354.139 57.4588 346.565 45.3471C343.885 41.0622 340.776 39.4403 336.055 38.3382C335.307 38.5055 334.565 38.7005 333.83 38.923C326.591 41.1337 320.639 45.9335 314.935 50.7358C312.868 52.4521 310.846 54.2178 308.866 56.0327C306.886 57.847 304.952 59.7087 303.062 61.6178C301.173 63.527 299.332 65.481 297.537 67.48C295.744 69.4784 293.999 71.5196 292.305 73.6036C290.61 75.6871 288.967 77.8109 287.376 79.975C285.785 82.1386 284.248 84.3395 282.763 86.5778C281.28 88.8166 279.852 91.0901 278.479 93.3983C277.105 95.7064 275.789 98.0468 274.53 100.419C266.052 94.7757 256.351 91.5433 246.779 88.3256Z" fill="#EDB56C"/>
        <path d="M336.056 38.3379C340.777 39.44 343.886 41.0619 346.565 45.3468C354.139 57.4585 354.529 80.8664 353.119 95.0426C352.366 102.606 350.894 110.195 349.033 117.56C347.06 125.367 337.864 151.757 333.496 157.519C317.138 132.645 300.38 115.688 274.53 100.419C275.79 98.0464 277.106 95.7061 278.479 93.3979C279.852 91.0898 281.28 88.8163 282.764 86.5775C284.248 84.3392 285.786 82.1382 287.377 79.9746C288.968 77.8105 290.61 75.6867 292.305 73.6033C294 71.5193 295.744 69.4781 297.538 67.4796C299.332 65.4807 301.174 63.5266 303.063 61.6175C304.952 59.7084 306.887 57.8467 308.867 56.0323C310.846 54.2174 312.869 52.4518 314.935 50.7354C320.64 45.9332 326.591 41.1333 333.831 38.9226C334.565 38.7001 335.307 38.5052 336.056 38.3379Z" fill="white"/>
            <path d="M40.9241 165.178C40.6488 164.808 40.4157 164.465 40.1924 164.061C38.0897 160.255 36.9494 155.587 35.7125 151.424C27.9296 125.237 22.6133 79.097 30.3523 52.8465C31.7427 48.1319 34.2076 42.3746 38.8312 40.0729C41.8086 38.5915 45.4161 38.8539 48.478 39.9227C65.0492 45.7076 95.9249 84.5335 103.466 100.503C73.7352 120.427 60.2079 135.243 40.9241 165.178Z" fill="white"/>
        <path d="M183.876 85.7184C229.914 84.6342 268.538 94.7146 302.687 126.917C334.569 156.98 345.646 191.571 359.902 231.663C361.753 236.869 364.296 241.724 366.459 246.793C370.165 255.481 371.642 264.608 371.911 274.003C372.74 302.957 360.176 330.284 340.459 351.097C303.636 389.969 246.801 407.485 194.345 408.853C194.043 408.877 193.741 408.897 193.438 408.915C161.712 410.678 122.867 403.748 93.6819 391.178C76.8451 383.925 58.5708 372.382 45.0208 360.111C21.6811 338.973 7.29783 310.187 5.98051 278.539C5.62641 270.031 6.8032 261.433 8.81978 253.181C11.1758 243.54 14.8216 234.313 18.4154 225.082C25.4251 207.074 33.1682 188.901 42.8848 172.171C50.8585 158.441 60.0846 144.86 70.8887 133.187C74.8667 128.974 79.0501 124.975 83.439 121.192C87.8279 117.408 92.3992 113.86 97.153 110.546C126.125 90.1649 149.565 87.0609 183.876 85.7184Z" fill="white"/>
        <path d="M187.734 286.616C198.79 292.862 213.122 298.376 225.958 294.822C233.356 292.775 239.369 287.257 243.069 280.636C244.667 277.777 246.011 274.735 247.399 271.769C245.283 281.045 240.719 289.258 232.544 294.44C229.504 296.366 224.941 298.567 221.293 298.15C220.316 297.697 219.871 297.83 218.815 297.921C207.37 298.076 196.844 294.569 187.078 288.75C177.148 294.269 167.395 298.395 155.882 298.904C155.839 306.331 156.327 314.913 158.669 322.007C160.083 326.073 161.368 330.11 163.125 334.054C166.606 341.87 171.737 349.949 180.175 352.992C185.315 354.846 191.317 354.585 196.2 352.085C208.029 346.03 212.187 332.361 215.87 320.63L217.399 315.087C219.162 313.357 219.146 308.653 219.296 306.282L219.682 305.799L219.422 305.646L219.589 305.487C219.831 306.265 220.079 307.041 220.334 307.815C220.415 320.04 213.777 339.225 205.21 348.045C200.449 352.946 193.976 356.224 187.05 356.222C180.202 356.221 173.835 353.004 169.158 348.127C156.968 335.415 153.813 316.151 154.095 299.234C149.02 298.569 144.24 297.009 139.995 294.099C132.81 289.174 129.505 282.062 127.914 273.736L128.213 273.524L127.926 273.039C128.691 276.295 130.621 279.928 132.369 282.78C136.305 289.198 141.848 294.126 149.31 295.871C161.447 298.709 175.747 293.143 185.905 286.819C186.401 283.286 186.334 279.701 186.862 276.162L188.059 276.046C187.824 279.572 187.77 283.084 187.734 286.616Z" fill="#661A23"/>
        <path d="M186.861 276.163C186.785 276.039 186.725 275.904 186.633 275.791C185.42 274.3 181.136 272.853 179.303 271.846C172.621 268.174 163.652 260.444 163.659 252.102C163.661 249.577 164.751 247.403 166.559 245.675C172.528 239.972 184.721 239.832 192.407 240.248C198.178 240.559 206.189 241.475 210.332 245.955C212.007 247.766 212.75 250.026 212.545 252.477C212.061 258.265 207.124 264.049 202.744 267.522C199.785 269.868 188.728 275.249 188.059 276.047L186.861 276.163Z" fill="#1A1616"/>
        <path d="M187.078 288.75C196.844 294.569 207.37 298.076 218.815 297.921C219.871 297.83 220.316 297.697 221.293 298.15C221.044 301.234 221.118 304.84 220.334 307.815C220.079 307.041 219.831 306.265 219.589 305.487L219.422 305.646L219.682 305.8L219.296 306.282C219.146 308.653 219.162 313.357 217.399 315.087L215.87 320.63C203.86 313.392 187.598 312.405 174.232 315.74C169.397 316.946 162.531 318.788 158.669 322.007C156.327 314.913 155.84 306.331 155.883 298.904C167.395 298.395 177.148 294.269 187.078 288.75Z" fill="#974B6E"/>
        <path d="M158.669 322.007C162.531 318.789 169.397 316.947 174.231 315.741C187.598 312.405 203.86 313.393 215.87 320.631C212.187 332.362 208.028 346.03 196.2 352.086C191.317 354.585 185.315 354.846 180.175 352.993C171.737 349.95 166.606 341.87 163.125 334.055C161.368 330.11 160.083 326.074 158.669 322.007Z" fill="#D8949F"/>
        <path d="M179.472 94.2362C189.004 93.5354 198.951 94.2484 208.446 95.2376C227.469 97.2193 243.738 100.385 261.525 107.59C271.7 111.711 280.512 117.771 289.331 124.194C332.982 155.985 338.75 193.162 358.468 239.48C331.606 227.561 304.703 251.987 277.784 255.005C262.644 256.701 251.736 251.334 240.149 242.113C208.106 216.614 194.013 177.178 189.552 137.613C189.096 133.65 189.018 129.711 188.184 125.793C186.255 149.494 181.465 173.207 171.387 194.86C159.932 219.468 140.378 241.769 114.245 251.104C92.4614 258.884 76.9792 250.12 57.6418 241.081C42.9313 234.205 34.7228 232.441 19.3552 238.024C33.9107 203.533 47.1455 168.685 72.501 140.292C91.131 119.431 117.393 104.715 144.588 98.5943C155.999 96.0254 167.813 94.916 179.472 94.2362Z" fill="#EDB56C"/>
        <path d="M109.63 173.391C115.718 172.918 121.897 174.36 126.966 177.826C133.375 182.21 137.175 189.01 138.557 196.564C140.129 205.159 138.55 214.282 133.517 221.503C128.735 228.361 121.419 232.134 113.312 233.556C107.046 234.087 100.904 232.513 95.7946 228.819C89.0822 223.967 85.1156 215.671 83.955 207.625C82.7741 199.435 84.7071 191.164 89.7538 184.554C94.7802 177.971 101.51 174.458 109.63 173.391Z" fill="#1A1616"/>
        <path d="M116.049 181.895C118.011 182.003 119.787 182.16 121.561 183.073C124.58 184.627 125.777 187.277 126.684 190.389C126.407 191.995 126.059 193.713 125.417 195.211C124.086 198.312 121.915 199.802 118.837 200.935C116.753 200.987 114.844 200.961 112.991 199.886C112.708 199.719 112.434 199.539 112.17 199.346C111.905 199.153 111.651 198.947 111.406 198.729C111.161 198.511 110.928 198.281 110.706 198.04C110.484 197.799 110.274 197.547 110.077 197.286C109.879 197.024 109.695 196.753 109.524 196.474C109.353 196.194 109.196 195.906 109.053 195.611C108.91 195.316 108.782 195.015 108.669 194.707C108.556 194.4 108.458 194.087 108.375 193.77C107.711 191.205 108.047 188.392 109.494 186.147C111.041 183.75 113.311 182.452 116.049 181.895Z" fill="white"/>
        <path d="M259.167 173.35C265.451 172.686 272.132 174.277 277.393 177.787C284.316 182.404 288.9 190.466 290.453 198.54C290.554 199.044 290.642 199.55 290.718 200.058C290.794 200.566 290.857 201.076 290.907 201.587C290.958 202.098 290.995 202.61 291.02 203.123C291.044 203.637 291.056 204.15 291.056 204.663C291.055 205.177 291.041 205.691 291.015 206.204C290.989 206.717 290.949 207.228 290.897 207.74C290.845 208.251 290.781 208.76 290.703 209.268C290.626 209.776 290.536 210.282 290.434 210.785C290.331 211.288 290.216 211.788 290.089 212.286C289.961 212.784 289.822 213.278 289.669 213.769C289.517 214.26 289.353 214.746 289.177 215.228C289 215.711 288.812 216.189 288.611 216.662C288.411 217.135 288.199 217.602 287.976 218.065C287.753 218.528 287.518 218.984 287.271 219.435C287.025 219.886 286.767 220.33 286.499 220.768C286.231 221.206 285.952 221.637 285.661 222.061C280.782 229.103 274.004 232.95 265.683 234.466C259.348 235.378 252.691 233.753 247.355 230.266C240.424 225.734 235.911 218.422 234.336 210.354C234.229 209.822 234.135 209.288 234.055 208.752C233.974 208.215 233.907 207.677 233.853 207.137C233.8 206.597 233.759 206.056 233.732 205.514C233.705 204.973 233.691 204.431 233.691 203.888C233.691 203.346 233.704 202.804 233.731 202.262C233.758 201.72 233.798 201.179 233.851 200.639C233.904 200.099 233.971 199.561 234.051 199.024C234.132 198.488 234.225 197.954 234.332 197.422C234.438 196.89 234.558 196.361 234.691 195.835C234.823 195.309 234.969 194.786 235.128 194.268C235.287 193.749 235.458 193.234 235.643 192.724C235.827 192.214 236.023 191.708 236.232 191.208C236.441 190.707 236.663 190.212 236.896 189.723C237.13 189.233 237.376 188.75 237.634 188.272C237.891 187.795 238.16 187.324 238.441 186.86C238.722 186.396 239.015 185.939 239.318 185.49C244.216 178.32 250.766 174.871 259.167 173.35Z" fill="#1A1616"/>
        <path d="M256.591 181.818C258.353 181.764 260.275 181.948 261.898 182.679C262.187 182.807 262.47 182.949 262.745 183.106C263.02 183.262 263.287 183.432 263.545 183.616C263.804 183.799 264.052 183.994 264.29 184.203C264.529 184.411 264.756 184.631 264.972 184.862C265.189 185.093 265.393 185.334 265.586 185.586C265.778 185.838 265.957 186.099 266.123 186.368C266.289 186.638 266.441 186.915 266.579 187.2C266.717 187.485 266.84 187.776 266.949 188.074C267.054 188.365 267.144 188.661 267.219 188.961C267.295 189.261 267.355 189.565 267.401 189.871C267.446 190.177 267.477 190.484 267.492 190.794C267.507 191.103 267.507 191.412 267.491 191.721C267.476 192.03 267.445 192.338 267.4 192.644C267.354 192.95 267.293 193.253 267.218 193.553C267.142 193.854 267.052 194.15 266.948 194.441C266.843 194.732 266.724 195.018 266.591 195.297C265.149 198.293 262.87 199.54 259.84 200.547C258.226 200.627 256.561 200.591 255.032 200.008C254.714 199.887 254.403 199.75 254.099 199.597C253.796 199.443 253.5 199.274 253.214 199.089C252.928 198.905 252.652 198.706 252.386 198.493C252.121 198.279 251.868 198.052 251.626 197.812C251.384 197.572 251.156 197.321 250.941 197.057C250.725 196.793 250.524 196.519 250.337 196.234C250.151 195.949 249.98 195.655 249.824 195.352C249.668 195.05 249.528 194.74 249.405 194.422C249.296 194.14 249.201 193.852 249.12 193.559C249.04 193.267 248.975 192.971 248.924 192.671C248.874 192.372 248.839 192.072 248.819 191.769C248.8 191.466 248.796 191.163 248.807 190.86C248.819 190.557 248.845 190.255 248.888 189.955C248.93 189.654 248.987 189.357 249.06 189.062C249.132 188.768 249.219 188.477 249.321 188.191C249.423 187.906 249.539 187.626 249.67 187.353C251.07 184.433 253.61 182.811 256.591 181.818Z" fill="white"/>
    </g>
</svg>
