<svg viewBox="0 0 122 122" fill="none" xmlns="http://www.w3.org/2000/svg">
<rect width="122" height="122" rx="15" fill="white"/>
<path d="M65 23.4265C59.4 25.8265 53.3333 34.7598 51 38.9265C54.5 44.4265 76 42.4265 81 38.9265C86 35.4265 83.5 31.4265 81 26.9265C78.5 22.4265 72 20.4265 65 23.4265Z" fill="white" stroke="#661A23" stroke-width="2" stroke-linejoin="round"/>
<path d="M77.8805 31.1306C72.2805 31.5306 62.5 38 42.3805 40.6306C30 42.2494 27.3805 40.6306 19.3805 43.1306C11.3805 45.6306 10.3805 99.1306 19.3805 99.6306C28.3805 100.131 93.6241 96 105.381 77.6306C111.224 68.5 108.881 50.1306 103.881 40.6306C98.8805 31.1306 84.8805 30.6306 77.8805 31.1306Z" fill="white" stroke="#661A23" stroke-width="2" stroke-linejoin="round"/>
<mask id="mask0_20_165" style="mask-type:alpha" maskUnits="userSpaceOnUse" x="13" y="30" width="97" height="69">
<path d="M78.3246 31.1275C72.7726 31.5177 63.0759 37.8298 43.1288 40.3965C30.8543 41.9759 28.2573 40.3965 20.3258 42.8357C12.3944 45.2749 11.4029 97.474 20.3258 97.9619C29.2487 98.4497 93.9333 94.4195 105.589 76.4968C111.383 67.5882 109.059 49.6655 104.102 40.3965C99.1447 31.1275 85.2647 30.6396 78.3246 31.1275Z" fill="white" stroke="#661A23" stroke-width="2" stroke-linejoin="round"/>
</mask>
<g mask="url(#mask0_20_165)">
<path d="M105.244 58.6138C102.886 54.6918 97.7091 55.0186 95.4157 55.6723C68.387 62.0455 15.3222 73.2108 14 78.5C12.5 84.5 17.0257 97.039 18.5 99C19.9743 100.961 62.9812 97.3433 77.2327 93.4213C91.4843 89.4994 105.034 79.8927 107 74.5C108.966 69.1073 108.193 63.5162 105.244 58.6138Z" fill="#C77D43"/>
</g>
<path d="M42 43.5C24 44.5 21 45 17.5 47.5C17.1667 48.3333 15.3 51.5 14.5 59.5C13.5 69.5 14 88.5 15.5 88.5C36 91.5 97.5176 70.7624 101.324 63.8333C107 53.5 104 47 100 41C96 35 84.5 34 73 35.5C61.5 37 58.7447 42.5697 42 43.5Z" fill="#EDB56C"/>
</svg>
