<svg class="noti" viewBox="0 0 104 104" fill="none" xmlns="http://www.w3.org/2000/svg">
<path fill-rule="evenodd" clip-rule="evenodd" d="M77.7143 76.7131V40.4035C77.7143 26.1202 66.1856 14.5702 52 14.5702C37.8144 14.5702 26.2857 26.1202 26.2857 40.4035V76.7131H77.7143ZM82 40.4035C82 23.7692 68.5685 10.2845 52 10.2845C35.4315 10.2845 22 23.7692 22 40.4035V80.9988H82V40.4035Z" fill="#C77331"/>
<path fill-rule="evenodd" clip-rule="evenodd" d="M45.5715 80.9987C45.5715 84.5491 48.4497 87.4273 52.0001 87.4273C55.5505 87.4273 58.4286 84.5491 58.4286 80.9987H45.5715ZM41.2858 80.9987V76.713H62.7143V80.9987C62.7143 86.9161 57.9174 91.713 52.0001 91.713C46.0827 91.713 41.2858 86.9161 41.2858 80.9987Z" fill="#C77331"/>
</svg>
