<svg viewBox="0 0 244 133" fill="none" xmlns="http://www.w3.org/2000/svg">
<rect width="244" height="133" rx="15" fill="white"/>
<rect x="5" y="5" width="233" height="122" rx="61" fill="white" stroke="#C77D43" stroke-width="4"/>
<mask id="mask0_20_142" style="mask-type:alpha" maskUnits="userSpaceOnUse" x="16" y="13" width="106" height="106">
<rect x="16" y="13" width="106" height="106" rx="53" fill="#EDB56C"/>
</mask>
<g class="circle-btn" mask="url(#mask0_20_142)">
<rect x="17.5" y="14.5" width="103" height="103" rx="51.5" fill="#FDAE46" stroke="#98521C" stroke-width="3"/>
<path d="M33.6061 102C33.4342 101.952 33.377 101.819 33.4424 101.627C31.8212 98.0277 27.0245 89.6032 30.3255 89.797C34.6016 90.0482 84.1352 80.7565 98.033 78.2453C111.931 75.734 108.367 80.7565 112.287 85.5279C116.207 90.2993 107.691 97.6095 85.7424 95.824C61.0467 93.815 61.8767 97.303 49.1061 97.303C38.5008 97.303 33.829 100.494 33.4424 101.627C33.5013 101.758 33.5561 101.883 33.6061 102Z" fill="#F4AA4B"/>
<path d="M24.2062 85.595C-0.578447 87.6156 4.55169 88.2873 5.71763 91.234C5.71763 102.6 17.7102 99.8217 17.7102 99.8217C17.7102 99.8217 27.2044 95.2752 57.6855 91.234C88.1665 87.1928 114.65 96.5381 134.138 79.1103C153.626 61.6825 138.635 78.3526 126.143 74.564C111.152 70.0176 105.656 70.5227 80.6712 79.1103C55.6867 87.6979 55.1869 83.0692 24.2062 85.595Z" fill="#98521C"/>
<path d="M59.5343 34.9285C60.1225 35.5351 60.7319 36.2067 61.1722 36.937C62.1989 38.6414 62.3064 41.0384 61.8342 42.8958C61.2461 45.2096 59.701 47.3527 57.6174 48.4489C55.7218 49.446 54.0627 49.4628 52.05 48.737C51.3651 48.0167 50.6397 47.2602 50.1482 46.3842C49.1412 44.5904 49.0993 42.1482 49.646 40.2435C50.2989 37.9667 51.9035 35.8453 54.022 34.8396C56.0057 33.8972 57.5231 34.1024 59.5343 34.9285Z" fill="#C77331"/>
<path d="M88.6606 53.5944C89.4935 54.6496 90.2297 55.5881 90.4475 56.9503C90.7763 59.0013 89.8435 61.1342 88.6262 62.6651C86.9793 64.7378 84.456 66.6392 81.7405 66.8147C79.977 66.9292 79.0132 66.3735 77.6977 65.2022C77.2703 64.5129 76.938 63.8298 76.6863 63.0551C76.0505 61.0938 76.292 58.8773 77.1952 57.089C78.2569 54.9844 80.328 53.3808 82.5468 52.7292C84.7753 52.0745 86.634 52.4331 88.6606 53.5944Z" fill="#C77331"/>
<path d="M76.615 37.9937C77.2793 38.7477 78.0359 39.5167 78.4015 40.4732C79.2575 42.7082 78.8456 45.3814 77.8929 47.457C76.8797 49.6631 75.0911 51.8797 72.7286 52.6036C70.942 53.1504 69.4441 52.6455 67.8354 51.7479C67.2537 51.0717 66.6597 50.3428 66.259 49.5394C65.2497 47.5158 65.4259 44.8929 66.2186 42.8829C67.1346 40.5601 68.954 38.5109 71.2625 37.6077C73.251 36.8295 74.6672 37.1534 76.615 37.9937Z" fill="#C77331"/>
<ellipse cx="14.3999" cy="8.72182" rx="14.3999" ry="8.72182" transform="matrix(0.885665 0.464325 -0.432852 0.901465 49.9712 53.2176)" fill="#C77331"/>
</g>
</svg>
