<svg width="433" height="393" viewBox="0 0 433 393" fill="none" xmlns="http://www.w3.org/2000/svg">
<path d="M347.79 244.266C370.206 236.703 391.14 227.67 411.461 215.533L417.635 210.82C398.451 195.733 356.454 158.884 341.929 132.176C336.019 128.569 330.768 129.42 328.881 130.297C317.4 141.135 251.617 146.224 220.16 147.413C213.637 146.961 206.97 147.253 200.426 147.181C185.912 147.023 170.968 146.7 156.587 144.727C149.175 132.782 143.481 119.878 130.436 112.981C123.169 109.14 114.941 107.862 107.022 110.496C99.415 113.027 92.1452 118.871 88.5451 126.037C87.5224 128.072 84.0436 127.072 82.0307 126.958C71.6661 126.372 60.1194 129.707 51.142 134.878C38.3974 142.22 29.1095 153.831 25.3969 168.125C21.2224 184.203 23.7943 200.693 32.196 214.935C44.9309 236.521 65.9634 247.472 89.6559 253.443C108.195 258.114 127.341 260.087 146.305 262.182C214.354 269.703 282.553 266.276 347.79 244.266Z" fill="#661A23"/>
<path d="M96.284 128.198C98.3432 124.696 100.942 121.768 104.253 119.389C104.573 119.155 104.898 118.93 105.23 118.714C105.562 118.497 105.899 118.289 106.241 118.09C106.584 117.891 106.932 117.701 107.284 117.521C107.636 117.34 107.993 117.169 108.354 117.007C108.716 116.845 109.082 116.693 109.451 116.551C109.821 116.408 110.194 116.275 110.57 116.153C110.947 116.03 111.326 115.917 111.708 115.814C112.091 115.711 112.476 115.618 112.863 115.535C113.25 115.453 113.64 115.381 114.031 115.318C114.422 115.256 114.815 115.205 115.208 115.164C115.602 115.122 115.997 115.091 116.393 115.07C116.788 115.049 117.184 115.039 117.58 115.04C117.976 115.04 118.372 115.051 118.767 115.072C119.163 115.093 119.558 115.124 119.951 115.166C120.345 115.208 120.737 115.261 121.129 115.324C121.52 115.386 121.909 115.458 122.296 115.541C133.51 117.859 139.716 126.229 145.681 135.133L150.715 143.01C131.888 140.647 114.827 131.983 96.284 128.198Z" fill="white"/>
<path d="M152.471 257.004C157.35 252.121 162.157 247.262 166.258 241.686C210.768 246.781 253.222 245.538 297.017 235.656C312.896 232.073 329.529 227.313 344.117 219.971C352.224 215.89 360.877 211.459 368.283 206.217C374.474 201.836 380.352 195.929 387.033 192.412C393.901 198.746 401.237 204.693 408.37 210.734C392.779 221.123 374.611 228.606 357.038 234.983C289.075 259.645 223.922 263.287 152.471 257.004Z" fill="#C77D43"/>
<path d="M152.471 257.005C145.84 257.27 137.389 254.808 130.69 253.81C102.799 249.656 72.5534 246.789 50.9094 226.616C50.1804 225.935 49.4691 225.236 48.7754 224.52C48.081 223.803 47.405 223.07 46.7472 222.319C46.0896 221.57 45.4508 220.804 44.8307 220.022C44.2112 219.24 43.6114 218.444 43.0312 217.633C42.4503 216.821 41.8901 215.996 41.3506 215.156C40.8118 214.318 40.2938 213.466 39.7966 212.6C39.299 211.736 38.8236 210.859 38.3705 209.971C37.9163 209.082 37.4847 208.183 37.0755 207.273C36.6663 206.363 36.2799 205.444 35.9165 204.515C35.553 203.586 35.2127 202.649 34.8959 201.703C34.579 200.757 34.2854 199.804 34.0152 198.843C33.7457 197.883 33.4997 196.916 33.2774 195.944C33.0557 194.971 32.8582 193.994 32.6848 193.012C32.5108 192.029 32.3617 191.043 32.2374 190.053C32.1125 189.064 32.0124 188.071 31.9371 187.077C31.8618 186.082 31.811 185.086 31.7848 184.089C31.4548 171.139 36.1586 158.091 45.1351 148.689C45.7279 148.079 46.3352 147.484 46.9569 146.903C47.5788 146.323 48.2144 145.759 48.8638 145.209C49.5139 144.66 50.1763 144.126 50.8512 143.61C51.5265 143.093 52.2144 142.592 52.9148 142.109C53.6141 141.625 54.325 141.159 55.0474 140.71C55.7704 140.262 56.5037 139.831 57.2474 139.418C57.991 139.005 58.744 138.61 59.5064 138.234C60.2698 137.857 61.0414 137.5 61.8212 137.162C62.6013 136.823 63.3894 136.503 64.1855 136.203C64.9815 135.902 65.784 135.622 66.5929 135.361C67.4029 135.1 68.2187 134.859 69.0404 134.638C69.8611 134.417 70.6872 134.216 71.5187 134.035C72.3495 133.853 73.1845 133.692 74.0237 133.552C74.8624 133.412 75.7042 133.293 76.5489 133.194C77.3937 133.095 78.2404 133.016 79.0891 132.958C79.9378 132.9 80.7875 132.863 81.638 132.847C98.1327 132.683 113.488 139.73 128.928 144.514C137.625 147.128 146.454 149.166 155.416 150.629C175.591 153.774 197.944 153.548 218.353 153.719C223.872 153.765 229.81 152.325 235.226 152.913C242.934 153.75 315.719 143.555 336.269 134.803L295.17 152.307L257.022 161.231C251.97 162.359 246.103 159.754 240.817 159.633C229.326 159.368 217.763 159.53 206.29 158.896C195.418 158.296 184.61 156.848 173.73 156.337C176.126 161.556 178.03 166.949 179.443 172.515C185.145 195.736 178.474 221.686 166.258 241.687C162.157 247.263 157.35 252.122 152.471 257.005Z" fill="white"/>
<path d="M173.731 156.334C184.611 156.845 195.419 158.293 206.291 158.894C217.764 159.527 229.327 159.366 240.818 159.63C246.104 159.751 251.474 160.268 256.526 159.14L258.905 158.564C266.043 156.836 268.094 156.798 277.939 153.957C305.013 146.144 315.144 143.074 336.269 134.801C349.906 148.577 372.406 179.656 387.034 192.41C380.353 195.927 374.475 201.834 368.284 206.215C360.877 211.458 352.225 215.889 344.118 219.969C329.53 227.311 312.897 232.071 297.018 235.654C253.223 245.536 210.769 246.779 166.259 241.684C178.475 221.683 185.146 195.733 179.444 172.512C178.031 166.946 176.127 161.553 173.731 156.334Z" fill="#EDB56C"/>
<path d="M55.186 211.999C55.8866 210.542 56.6909 209.006 57.7175 207.745C60.1138 204.804 64.3966 203.128 68.0948 202.852C72.7015 202.508 77.6519 204.031 81.0673 207.191C84.1744 210.066 85.3381 213.11 85.394 217.263C84.5527 218.968 83.6734 220.77 82.417 222.215C79.8448 225.175 75.435 226.758 71.5999 226.926C67.0163 227.128 62.0647 225.482 58.7898 222.202C55.722 219.131 55.0586 216.211 55.186 211.999Z" fill="#D8949F"/>
<path d="M69.2139 146.867C70.5626 144.683 71.7653 142.749 74.0923 141.508C77.5951 139.638 82.1086 140.04 85.7224 141.337C90.6142 143.091 95.7934 146.564 97.9673 151.455C99.38 154.631 99.0284 156.748 97.7983 159.892C96.8375 161.104 95.823 162.137 94.587 163.078C91.4569 165.458 87.2636 166.38 83.3966 165.82C78.8466 165.163 74.5175 162.339 71.8176 158.656C69.1056 154.957 68.4876 151.314 69.2139 146.867Z" fill="#D8949F"/>
<path d="M49.0895 178.663C50.0061 176.975 50.8869 175.108 52.3755 173.845C55.8526 170.891 60.9922 170.001 65.4151 170.475C70.1165 170.98 75.3668 172.906 78.2961 176.809C80.5104 179.761 80.616 182.83 80.0835 186.345C79.252 187.833 78.333 189.376 77.1465 190.609C74.1583 193.715 69.2712 195.008 65.0768 194.788C60.2295 194.534 55.2625 192.448 52.0442 188.755C49.2716 185.574 48.8928 182.767 49.0895 178.663Z" fill="#D8949F"/>
<path d="M93.0191 185.745C93.3847 185.065 93.7894 184.409 94.2332 183.777C94.6773 183.146 95.1568 182.543 95.6719 181.969C96.1873 181.393 96.7351 180.851 97.315 180.341C97.895 179.832 98.5031 179.358 99.1393 178.921C105.242 174.749 112.464 175.169 119.354 176.549C120.308 175.122 121.336 173.783 122.435 172.468C125.239 169.111 128.794 166 133.386 165.763C133.701 165.746 134.016 165.747 134.331 165.763C134.646 165.779 134.96 165.81 135.271 165.857C135.583 165.904 135.892 165.966 136.197 166.044C136.503 166.123 136.804 166.216 137.1 166.324C137.397 166.432 137.687 166.554 137.971 166.691C138.255 166.829 138.532 166.98 138.8 167.145C139.069 167.31 139.329 167.488 139.58 167.679C139.831 167.87 140.072 168.073 140.303 168.288C142.819 170.648 143.979 174.026 144.099 177.419C144.356 184.591 140.433 189.904 135.782 194.864C135.382 196.671 136.147 197.283 137.031 198.86C138.846 202.557 139.408 206.1 138.741 210.182C137.998 214.727 135.598 219.79 131.716 222.467C129.259 224.161 126.292 224.736 123.39 224.019C117.149 222.476 113.49 216.327 110.229 211.319C107.964 211.07 105.791 210.737 103.63 209.98C99.0303 208.367 94.491 205.226 92.3619 200.714C89.9835 195.673 91.079 190.707 93.0191 185.745Z" fill="#D8949F"/>
</svg>
